<svg width="24" height="24" viewBox="0 0 24 24" fill="none" xmlns="http://www.w3.org/2000/svg">
<g clip-path="url(#clip0_5106_4766)">
<path d="M15.477 14L16.992 22.526C17.009 22.6264 16.9949 22.7296 16.9516 22.8218C16.9084 22.9139 16.838 22.9907 16.7499 23.0418C16.6619 23.0929 16.5603 23.1159 16.4588 23.1077C16.3573 23.0995 16.2607 23.0606 16.182 22.996L12.602 20.309C12.4292 20.1799 12.2192 20.1101 12.0035 20.1101C11.7878 20.1101 11.5778 20.1799 11.405 20.309L7.819 22.995C7.74032 23.0594 7.64386 23.0983 7.54249 23.1065C7.44112 23.1147 7.33967 23.0918 7.25166 23.0409C7.16365 22.9899 7.09327 22.9133 7.04991 22.8213C7.00656 22.7293 6.99228 22.6263 7.009 22.526L8.523 14" stroke="white" stroke-width="2" stroke-linecap="round" stroke-linejoin="round"/>
<path d="M12 14C15.3137 14 18 11.3137 18 8C18 4.68629 15.3137 2 12 2C8.68629 2 6 4.68629 6 8C6 11.3137 8.68629 14 12 14Z" stroke="white" stroke-width="2" stroke-linecap="round" stroke-linejoin="round"/>
</g>
<defs>
<clipPath id="clip0_5106_4766">
<rect width="24" height="24" fill="white"/>
</clipPath>
</defs>
</svg>
