<svg width="16" height="16" viewBox="0 0 16 16" fill="none" xmlns="http://www.w3.org/2000/svg">
<g clip-path="url(#clip0_5134_5465)">
<path d="M4.66667 1.33332C4.66667 0.965133 4.96514 0.666656 5.33333 0.666656H12.6667C13.4 0.666656 14 1.26666 14 1.99999V10.6667C14 11.0348 13.7015 11.3333 13.3333 11.3333C12.9651 11.3333 12.6667 11.0348 12.6667 10.6667V1.99999H5.33333C4.96514 1.99999 4.66667 1.70151 4.66667 1.33332ZM2.66667 3.33332H10C10.7333 3.33332 11.3333 3.93332 11.3333 4.66666V14C11.3333 14.7333 10.7333 15.3333 10 15.3333H2.66667C1.93333 15.3333 1.33333 14.7333 1.33333 14V4.66666C1.33333 3.93332 1.93333 3.33332 2.66667 3.33332ZM2.66667 14H10V4.66666H2.66667V14Z" fill="#5F760F"/>
</g>
<defs>
<clipPath id="clip0_5134_5465">
<rect width="16" height="16" fill="white"/>
</clipPath>
</defs>
</svg>
