<svg width="40" height="40" viewBox="0 0 40 40" fill="none" xmlns="http://www.w3.org/2000/svg">
<rect width="40" height="40" rx="8" fill="#1D1D1B"/>
<path d="M28.2874 12.3037C28.1078 12.1546 27.8912 12.0569 27.6605 12.0211C27.4298 11.9853 27.1938 12.0127 26.9774 12.1004L12.0466 18.1279C11.8053 18.227 11.5999 18.3972 11.4576 18.6158C11.3154 18.8345 11.2429 19.0912 11.25 19.3519C11.257 19.6127 11.3432 19.8651 11.4971 20.0758C11.651 20.2864 11.8653 20.4452 12.1116 20.5312L15.3333 21.6495L17.0791 27.4212C17.0824 27.4329 17.0933 27.4404 17.0983 27.4512C17.1165 27.4971 17.1427 27.5394 17.1758 27.5762C17.2266 27.6323 17.2917 27.6735 17.3641 27.6954C17.3724 27.6987 17.3783 27.7062 17.3866 27.7079H17.3916L17.3941 27.7087C17.4586 27.7225 17.5256 27.719 17.5883 27.6987L17.6091 27.6945C17.6692 27.6733 17.7237 27.6385 17.7683 27.5929C17.7733 27.587 17.7816 27.5862 17.7866 27.5812L20.2974 24.8095L23.9616 27.647C24.1841 27.8212 24.4583 27.9154 24.7408 27.9154C25.3524 27.9154 25.8799 27.487 26.0058 26.8895L28.7241 13.5412C28.7705 13.3146 28.7544 13.0796 28.6774 12.8615C28.6005 12.6433 28.4657 12.4502 28.2874 12.3029M17.9899 22.7454L17.4008 25.6095L16.1716 21.5445L22.2674 18.3695L18.1033 22.5345C18.0457 22.5922 18.0063 22.6655 17.9899 22.7454ZM25.1891 26.722C25.1735 26.7976 25.1386 26.8679 25.088 26.9261C25.0374 26.9843 24.9726 27.0285 24.8999 27.0545C24.829 27.0814 24.7523 27.0895 24.6773 27.0781C24.6022 27.0668 24.5314 27.0362 24.4716 26.9895L20.5024 23.9154C20.4195 23.8513 20.3154 23.8209 20.211 23.8301C20.1066 23.8394 20.0095 23.8877 19.9391 23.9654L18.1916 25.8912L18.7799 23.0354L24.7708 17.0437C24.8409 16.9733 24.8836 16.8802 24.8911 16.7811C24.8986 16.682 24.8705 16.5834 24.8118 16.5033C24.753 16.4231 24.6676 16.3666 24.5708 16.3439C24.474 16.3212 24.3724 16.3338 24.2841 16.3795L15.6483 20.8779L12.3841 19.7429C12.2978 19.7138 12.2226 19.6589 12.1688 19.5855C12.1149 19.5121 12.0851 19.4239 12.0833 19.3329C12.0789 19.2409 12.1033 19.1498 12.1532 19.0724C12.2031 18.995 12.276 18.9351 12.3616 18.9012L27.2899 12.8737C27.3665 12.8416 27.4505 12.8313 27.5325 12.8439C27.6146 12.8566 27.6916 12.8917 27.7549 12.9454C27.818 12.996 27.8656 13.0633 27.8924 13.1395C27.9192 13.2158 27.9241 13.2981 27.9066 13.377L25.1891 26.722Z" fill="white"/>
<path d="M28.2874 12.3037C28.1078 12.1546 27.8912 12.0569 27.6605 12.0211C27.4298 11.9853 27.1938 12.0127 26.9774 12.1004L12.0466 18.1279C11.8053 18.227 11.5999 18.3972 11.4576 18.6158C11.3154 18.8345 11.2429 19.0912 11.25 19.3519C11.257 19.6127 11.3432 19.8651 11.4971 20.0758C11.651 20.2864 11.8653 20.4452 12.1116 20.5312L15.3333 21.6495L17.0791 27.4212C17.0824 27.4329 17.0933 27.4404 17.0983 27.4512C17.1165 27.4971 17.1427 27.5394 17.1758 27.5762C17.2266 27.6323 17.2917 27.6735 17.3641 27.6954C17.3724 27.6987 17.3783 27.7062 17.3866 27.7079H17.3916L17.3941 27.7087C17.4586 27.7225 17.5256 27.719 17.5883 27.6987L17.6091 27.6945C17.6692 27.6733 17.7237 27.6385 17.7683 27.5929C17.7733 27.587 17.7816 27.5862 17.7866 27.5812L20.2974 24.8095L23.9616 27.647C24.1841 27.8212 24.4583 27.9154 24.7408 27.9154C25.3524 27.9154 25.8799 27.487 26.0058 26.8895L28.7241 13.5412C28.7705 13.3146 28.7544 13.0796 28.6774 12.8615C28.6005 12.6433 28.4657 12.4502 28.2874 12.3029M17.9899 22.7454L17.4008 25.6095L16.1716 21.5445L22.2674 18.3695L18.1033 22.5345C18.0457 22.5922 18.0063 22.6655 17.9899 22.7454ZM25.1891 26.722C25.1735 26.7976 25.1386 26.8679 25.088 26.9261C25.0374 26.9843 24.9726 27.0285 24.8999 27.0545C24.829 27.0814 24.7523 27.0895 24.6773 27.0781C24.6022 27.0668 24.5314 27.0362 24.4716 26.9895L20.5024 23.9154C20.4195 23.8513 20.3154 23.8209 20.211 23.8301C20.1066 23.8394 20.0095 23.8877 19.9391 23.9654L18.1916 25.8912L18.7799 23.0354L24.7708 17.0437C24.8409 16.9733 24.8836 16.8802 24.8911 16.7811C24.8986 16.682 24.8705 16.5834 24.8118 16.5033C24.753 16.4231 24.6676 16.3666 24.5708 16.3439C24.474 16.3212 24.3724 16.3338 24.2841 16.3795L15.6483 20.8779L12.3841 19.7429C12.2978 19.7138 12.2226 19.6589 12.1688 19.5855C12.1149 19.5121 12.0851 19.4239 12.0833 19.3329C12.0789 19.2409 12.1033 19.1498 12.1532 19.0724C12.2031 18.995 12.276 18.9351 12.3616 18.9012L27.2899 12.8737C27.3665 12.8416 27.4505 12.8313 27.5325 12.8439C27.6146 12.8566 27.6916 12.8917 27.7549 12.9454C27.818 12.996 27.8656 13.0633 27.8924 13.1395C27.9192 13.2158 27.9241 13.2981 27.9066 13.377L25.1891 26.722Z" stroke="white" stroke-width="0.1"/>
</svg>
