<svg width="40" height="40" viewBox="0 0 40 40" fill="none" xmlns="http://www.w3.org/2000/svg">
<rect width="40" height="40" rx="8" fill="#5F760F"/>
<path d="M10.0586 14.8438C10.0586 14.1016 10.5664 13.8086 11.1914 13.7695L14.1016 13.7891C14.2773 13.7891 14.4336 13.9062 14.4922 14.082C15.1562 16.2305 15.9766 17.5586 16.9531 19.0625C17.0117 19.1797 17.1094 19.2383 17.207 19.2383C17.2852 19.2383 17.3633 19.1992 17.4219 19.1016L17.4805 18.8867L17.5 15.5078C17.5 15.0195 17.2656 14.9414 16.7188 14.8633C16.5039 14.8242 16.3672 14.6289 16.3672 14.4336C16.3672 14.3945 16.3672 14.3555 16.3867 14.3164C16.6602 13.4766 17.5195 13.0469 18.7305 13.0469L19.8242 13.0273C20.7227 13.0273 21.543 13.418 21.543 14.5703V19.0039C21.6211 19.0625 21.6992 19.1016 21.7969 19.1016C21.9531 19.1016 22.1484 19.0039 22.3047 18.75C23.3203 17.3242 24.4727 15.625 24.6289 14.7266C24.6289 14.6875 24.6484 14.668 24.668 14.6289C24.8828 14.1992 25.4297 13.9062 25.6641 13.8281C25.7031 13.8086 25.7617 13.7891 25.8398 13.7891H28.8672L29.0625 13.8086C29.3555 13.8086 29.5703 14.0039 29.668 14.1797C29.8438 14.4531 29.8047 14.7461 29.8242 14.8633V15C29.5312 16.7773 27.5 18.7695 26.6406 20.0586C26.5234 20.2148 26.4648 20.3516 26.4648 20.4883C26.4648 20.6055 26.5234 20.7227 26.6211 20.8398L29.4727 24.4336C29.6289 24.6484 29.707 24.9023 29.707 25.1172C29.707 25.7617 29.1016 26.1328 28.5156 26.1914L28.1836 26.2109H25.2148C25.1562 26.2109 25.1172 26.2305 25.0586 26.2305C24.7266 26.2305 24.4531 26.0547 24.2578 25.8594C23.6328 25.0977 23.0273 24.3164 22.4219 23.5547C22.3047 23.3984 22.2656 23.3789 22.1484 23.3008C22.0117 23.8672 21.8945 24.4531 21.7578 25.0391L21.6992 25.3711C21.6016 25.7227 21.3477 26.0938 20.8789 26.1914L20.6055 26.2109H18.6914C15.3125 26.2109 12.2852 21.4062 10.1562 15.4102C10.0977 15.2539 10.0586 15.0391 10.0586 14.8438ZM21.7969 19.9023C21.2891 19.9023 20.7227 19.6094 20.7227 19.0625V14.5703C20.7227 14.043 20.4883 13.8477 19.8438 13.8477L18.7305 13.8867C18.1055 13.8867 17.7539 13.9844 17.4609 14.1797C17.9102 14.3945 18.3203 14.6875 18.3203 15.5078V18.9453C18.2617 19.6289 17.6953 20.0781 17.1484 20.0781C16.7773 20.0781 16.4453 19.8633 16.25 19.5117C15.3711 18.1836 14.6289 16.9336 13.9844 15.1367L13.8086 14.6289L11.2109 14.6094C10.8594 14.6094 10.8984 14.6289 10.8984 14.8047C10.8984 14.9219 10.918 15.0781 10.9375 15.1758L11.3477 16.2695C13.4766 21.7773 16.1523 25.3906 18.6914 25.3906H20.6445C20.918 25.3906 20.8984 25.0586 20.957 24.8633L21.3281 23.1445C21.4062 22.9688 21.4648 22.8125 21.6016 22.6758C21.7578 22.5195 21.9336 22.4609 22.1094 22.4609C22.4805 22.4609 22.832 22.7539 23.0664 23.0273L24.7266 25.1367C24.8633 25.3516 24.9805 25.3906 25.0586 25.3906H28.2812C28.5938 25.3906 28.8672 25.293 28.8672 25.0977C28.8672 25.0391 28.8477 24.9609 28.8086 24.9023L25.9766 21.3672C25.7422 21.0742 25.6445 20.7812 25.6445 20.4883C25.6445 20.1758 25.7617 19.8633 25.957 19.5898C26.7773 18.3594 28.5352 16.6016 28.9453 15.1562L29.0039 14.9023C28.9844 14.8047 28.9844 14.7266 28.9648 14.6289H25.8984C25.7031 14.707 25.5469 14.8242 25.4297 14.9805L25.3125 15.3516C24.8633 16.6016 23.6328 18.3203 22.7539 19.5117C22.4609 19.7852 22.1289 19.9023 21.7969 19.9023Z" fill="white" stroke="white" stroke-width="0.1"/>
</svg>
