<svg width="20" height="20" viewBox="0 0 20 20" fill="none" xmlns="http://www.w3.org/2000/svg">
<path d="M0.0585938 4.84375C0.0585938 4.10156 0.566406 3.80859 1.19141 3.76953L4.10156 3.78906C4.27734 3.78906 4.43359 3.90625 4.49219 4.08203C5.15625 6.23047 5.97656 7.55859 6.95312 9.0625C7.01172 9.17969 7.10938 9.23828 7.20703 9.23828C7.28516 9.23828 7.36328 9.19922 7.42188 9.10156L7.48047 8.88672L7.5 5.50781C7.5 5.01953 7.26562 4.94141 6.71875 4.86328C6.50391 4.82422 6.36719 4.62891 6.36719 4.43359C6.36719 4.39453 6.36719 4.35547 6.38672 4.31641C6.66016 3.47656 7.51953 3.04688 8.73047 3.04688L9.82422 3.02734C10.7227 3.02734 11.543 3.41797 11.543 4.57031V9.00391C11.6211 9.0625 11.6992 9.10156 11.7969 9.10156C11.9531 9.10156 12.1484 9.00391 12.3047 8.75C13.3203 7.32422 14.4727 5.625 14.6289 4.72656C14.6289 4.6875 14.6484 4.66797 14.668 4.62891C14.8828 4.19922 15.4297 3.90625 15.6641 3.82812C15.7031 3.80859 15.7617 3.78906 15.8398 3.78906H18.8672L19.0625 3.80859C19.3555 3.80859 19.5703 4.00391 19.668 4.17969C19.8438 4.45312 19.8047 4.74609 19.8242 4.86328V5C19.5312 6.77734 17.5 8.76953 16.6406 10.0586C16.5234 10.2148 16.4648 10.3516 16.4648 10.4883C16.4648 10.6055 16.5234 10.7227 16.6211 10.8398L19.4727 14.4336C19.6289 14.6484 19.707 14.9023 19.707 15.1172C19.707 15.7617 19.1016 16.1328 18.5156 16.1914L18.1836 16.2109H15.2148C15.1562 16.2109 15.1172 16.2305 15.0586 16.2305C14.7266 16.2305 14.4531 16.0547 14.2578 15.8594C13.6328 15.0977 13.0273 14.3164 12.4219 13.5547C12.3047 13.3984 12.2656 13.3789 12.1484 13.3008C12.0117 13.8672 11.8945 14.4531 11.7578 15.0391L11.6992 15.3711C11.6016 15.7227 11.3477 16.0938 10.8789 16.1914L10.6055 16.2109H8.69141C5.3125 16.2109 2.28516 11.4062 0.15625 5.41016C0.0976562 5.25391 0.0585938 5.03906 0.0585938 4.84375ZM11.7969 9.90234C11.2891 9.90234 10.7227 9.60938 10.7227 9.0625V4.57031C10.7227 4.04297 10.4883 3.84766 9.84375 3.84766L8.73047 3.88672C8.10547 3.88672 7.75391 3.98438 7.46094 4.17969C7.91016 4.39453 8.32031 4.6875 8.32031 5.50781V8.94531C8.26172 9.62891 7.69531 10.0781 7.14844 10.0781C6.77734 10.0781 6.44531 9.86328 6.25 9.51172C5.37109 8.18359 4.62891 6.93359 3.98438 5.13672L3.80859 4.62891L1.21094 4.60938C0.859375 4.60938 0.898438 4.62891 0.898438 4.80469C0.898438 4.92188 0.917969 5.07812 0.9375 5.17578L1.34766 6.26953C3.47656 11.7773 6.15234 15.3906 8.69141 15.3906H10.6445C10.918 15.3906 10.8984 15.0586 10.957 14.8633L11.3281 13.1445C11.4062 12.9688 11.4648 12.8125 11.6016 12.6758C11.7578 12.5195 11.9336 12.4609 12.1094 12.4609C12.4805 12.4609 12.832 12.7539 13.0664 13.0273L14.7266 15.1367C14.8633 15.3516 14.9805 15.3906 15.0586 15.3906H18.2812C18.5938 15.3906 18.8672 15.293 18.8672 15.0977C18.8672 15.0391 18.8477 14.9609 18.8086 14.9023L15.9766 11.3672C15.7422 11.0742 15.6445 10.7812 15.6445 10.4883C15.6445 10.1758 15.7617 9.86328 15.957 9.58984C16.7773 8.35938 18.5352 6.60156 18.9453 5.15625L19.0039 4.90234C18.9844 4.80469 18.9844 4.72656 18.9648 4.62891H15.8984C15.7031 4.70703 15.5469 4.82422 15.4297 4.98047L15.3125 5.35156C14.8633 6.60156 13.6328 8.32031 12.7539 9.51172C12.4609 9.78516 12.1289 9.90234 11.7969 9.90234Z" fill="#1D1D1B" stroke="#1D1D1B" stroke-width="0.1"/>
</svg>
