<svg width="40" height="40" viewBox="0 0 40 40" fill="none" xmlns="http://www.w3.org/2000/svg">
<rect width="40" height="40" rx="8" fill="#5F760F"/>
<path d="M24.1667 23.7497C22.7167 25.1997 19.3759 23.9638 17.7059 22.2938C16.0359 20.6238 14.8 17.283 16.25 15.833C16.67 15.413 17.2484 15.363 17.6017 15.3797C17.8059 15.3888 17.9825 15.5088 18.1017 15.6755L18.895 16.7872C19.0096 16.9477 19.0635 17.1436 19.0471 17.3402C19.0308 17.5367 18.9453 17.7211 18.8059 17.8605L18.055 18.6113C18.1934 19.028 18.6384 20.028 19.305 20.6947C19.9717 21.3613 20.9717 21.8063 21.3884 21.9447L22.1392 21.1947C22.2785 21.0551 22.4628 20.9694 22.6594 20.9529C22.8559 20.9365 23.0519 20.9902 23.2125 21.1047L24.3242 21.898C24.4909 22.0172 24.6109 22.1938 24.62 22.398C24.6367 22.7513 24.5867 23.3297 24.1667 23.7497Z" stroke="white" stroke-width="0.8" stroke-linejoin="round"/>
<path d="M20 28.75C24.8325 28.75 28.75 24.8325 28.75 20C28.75 15.1675 24.8325 11.25 20 11.25C15.1675 11.25 11.25 15.1675 11.25 20C11.25 21.5933 11.6758 23.0883 12.4208 24.375L11.6875 28.3125L15.625 27.5792C16.9545 28.3485 18.4639 28.7524 20 28.75Z" stroke="white" stroke-width="0.8" stroke-linejoin="round"/>
</svg>
