<svg width="40" height="40" fill="none" xmlns="http://www.w3.org/2000/svg"><rect width="40" height="40" rx="8" fill="#1D1D1B"/><path d="M28.287 12.304a1.291 1.291 0 00-1.31-.204l-14.93 6.028a1.286 1.286 0 00.065 2.403l3.221 1.119 1.746 5.771c.003.012.014.02.02.03a.416.416 0 00.265.244c.008.004.014.011.023.013h.007a.355.355 0 00.194-.01l.021-.003a.417.417 0 00.16-.102c.004-.006.013-.007.018-.012l2.51-2.771 3.665 2.837c.222.174.496.268.779.268.611 0 1.139-.428 1.265-1.025l2.718-13.349a1.274 1.274 0 00-.437-1.238M17.99 22.745l-.59 2.864-1.228-4.065 6.095-3.175-4.164 4.166a.417.417 0 00-.113.21zm7.2 3.977a.45.45 0 01-.29.332.44.44 0 01-.428-.064l-3.97-3.075a.417.417 0 00-.563.05l-1.747 1.926.588-2.856 5.99-5.991a.417.417 0 00-.486-.665l-8.636 4.499-3.264-1.135a.442.442 0 01-.3-.41.442.442 0 01.278-.432l14.928-6.027a.45.45 0 01.465.071.433.433 0 01.152.432l-2.718 13.345z" fill="#fff"/><path d="M28.287 12.304a1.291 1.291 0 00-1.31-.204l-14.93 6.028a1.286 1.286 0 00.065 2.403l3.221 1.119 1.746 5.771c.003.012.014.02.02.03a.416.416 0 00.265.244c.008.004.014.011.023.013h.007a.355.355 0 00.194-.01l.021-.003a.417.417 0 00.16-.102c.004-.006.013-.007.018-.012l2.51-2.771 3.665 2.837c.222.174.496.268.779.268.611 0 1.139-.428 1.265-1.025l2.718-13.349a1.274 1.274 0 00-.437-1.238M17.99 22.745l-.59 2.864-1.228-4.065 6.095-3.175-4.164 4.166a.417.417 0 00-.113.21zm7.2 3.977a.45.45 0 01-.29.332.44.44 0 01-.428-.064l-3.97-3.075a.417.417 0 00-.563.05l-1.747 1.926.588-2.856 5.99-5.991a.417.417 0 00-.486-.665l-8.636 4.499-3.264-1.135a.442.442 0 01-.3-.41.442.442 0 01.278-.432l14.928-6.027a.45.45 0 01.465.071.433.433 0 01.152.432l-2.718 13.345z" stroke="#fff" stroke-width=".1"/></svg>