<svg width="40" height="40" fill="none" xmlns="http://www.w3.org/2000/svg"><rect width="40" height="40" rx="8" fill="#1D1D1B"/><path d="M10.059 14.844c0-.742.507-1.035 1.132-1.074l2.91.02c.176 0 .333.116.391.292.664 2.148 1.485 3.477 2.461 4.98.059.118.156.176.254.176.078 0 .156-.039.215-.136l.058-.215.02-3.38c0-.487-.234-.566-.781-.644a.437.437 0 01-.352-.43c0-.038 0-.078.02-.117.273-.84 1.133-1.27 2.343-1.27l1.094-.019c.899 0 1.719.391 1.719 1.543v4.434a.411.411 0 00.254.098c.156 0 .351-.098.508-.352 1.015-1.426 2.168-3.125 2.324-4.023 0-.04.02-.059.039-.098.215-.43.762-.723.996-.8a.39.39 0 01.176-.04h3.027l.195.02a.71.71 0 01.606.37c.176.274.137.567.156.684V15c-.293 1.777-2.324 3.77-3.183 5.059-.118.156-.176.293-.176.43 0 .116.058.234.156.35l2.852 3.595a1.2 1.2 0 01.234.683c0 .645-.605 1.016-1.191 1.074l-.332.02h-2.97c-.058 0-.097.02-.155.02-.332 0-.606-.176-.801-.372-.625-.761-1.23-1.543-1.836-2.304-.117-.157-.156-.176-.274-.254-.136.566-.253 1.152-.39 1.738l-.059.332c-.097.352-.351.723-.82.82l-.274.02h-1.914c-3.378 0-6.406-4.805-8.535-10.8a1.723 1.723 0 01-.097-.567zm11.738 5.058c-.508 0-1.074-.293-1.074-.84V14.57c0-.527-.235-.722-.88-.722l-1.113.039c-.625 0-.976.097-1.27.293.45.215.86.508.86 1.328v3.437c-.058.684-.625 1.133-1.172 1.133-.37 0-.703-.215-.898-.566-.879-1.328-1.621-2.578-2.266-4.375l-.175-.508-2.598-.02c-.352 0-.313.02-.313.196 0 .117.02.273.04.37l.41 1.095c2.129 5.507 4.804 9.12 7.343 9.12h1.954c.273 0 .253-.331.312-.527l.371-1.718c.078-.176.137-.332.274-.47a.695.695 0 01.507-.214c.371 0 .723.293.957.566l1.66 2.11c.137.215.255.254.333.254h3.222c.313 0 .586-.098.586-.293a.377.377 0 00-.058-.196l-2.832-3.535c-.235-.293-.332-.586-.332-.879 0-.312.117-.625.312-.898.82-1.23 2.578-2.988 2.988-4.434l.059-.254c-.02-.097-.02-.175-.04-.273h-3.066a1.066 1.066 0 00-.468.351l-.117.372c-.45 1.25-1.68 2.968-2.56 4.16-.292.273-.624.39-.956.39z" fill="#fff" stroke="#fff" stroke-width=".1"/></svg>