<svg width="40" height="40" fill="none" xmlns="http://www.w3.org/2000/svg"><rect width="40" height="40" rx="8" fill="#1D1D1B"/><path d="M24.167 23.75c-1.45 1.45-4.791.214-6.461-1.456s-2.906-5.011-1.456-6.461c.42-.42.998-.47 1.352-.453.204.009.38.129.5.295l.793 1.112a.833.833 0 01-.089 1.073l-.75.751c.137.417.582 1.417 1.25 2.084.666.666 1.666 1.111 2.082 1.25l.751-.75a.834.834 0 011.074-.09l1.111.793c.167.12.287.296.296.5.017.353-.033.932-.453 1.352z" stroke="#fff" stroke-width=".8" stroke-linejoin="round"/><path d="M20 28.75a8.75 8.75 0 10-7.58-4.375l-.732 3.938 3.937-.734A8.708 8.708 0 0020 28.75z" stroke="#fff" stroke-width=".8" stroke-linejoin="round"/></svg>