<?xml version="1.0" standalone="no"?>
<!DOCTYPE svg PUBLIC "-//W3C//DTD SVG 20010904//EN"
 "http://www.w3.org/TR/2001/REC-SVG-20010904/DTD/svg10.dtd">
<svg version="1.0" xmlns="http://www.w3.org/2000/svg"
 width="50.000000pt" height="50.000000pt" viewBox="0 0 50.000000 50.000000"
 preserveAspectRatio="xMidYMid meet">

<g transform="translate(0.000000,50.000000) scale(0.100000,-0.100000)"
fill="#5F760F" stroke="none">
<path d="M188 474 c-29 -9 -68 -33 -103 -66 -33 -30 -60 -47 -65 -42 -5 5 -10
29 -13 54 -2 25 -3 -61 -3 -190 0 -129 1 -206 3 -170 2 36 8 69 13 74 6 6 29
-9 60 -38 64 -60 109 -79 185 -79 133 -1 228 97 229 233 1 109 -61 194 -166
225 -62 18 -79 18 -140 -1z"/>
</g>
</svg>
