<svg width="40" height="40" viewBox="0 0 40 40" fill="none" xmlns="http://www.w3.org/2000/svg">
<rect width="40" height="40" rx="8" fill="#1D1D1B"/>
<path d="M24.1668 23.7497C22.7168 25.1997 19.376 23.9638 17.706 22.2938C16.036 20.6238 14.8001 17.283 16.2501 15.833C16.6701 15.413 17.2485 15.363 17.6018 15.3797C17.806 15.3888 17.9826 15.5088 18.1018 15.6755L18.8951 16.7872C19.0097 16.9477 19.0636 17.1436 19.0473 17.3402C19.0309 17.5367 18.9454 17.7211 18.806 17.8605L18.0551 18.6113C18.1935 19.028 18.6385 20.028 19.3051 20.6947C19.9718 21.3613 20.9718 21.8063 21.3885 21.9447L22.1393 21.1947C22.2786 21.0551 22.463 20.9694 22.6595 20.9529C22.856 20.9365 23.052 20.9902 23.2126 21.1047L24.3243 21.898C24.491 22.0172 24.611 22.1938 24.6201 22.398C24.6368 22.7513 24.5868 23.3297 24.1668 23.7497Z" stroke="white" stroke-width="0.8" stroke-linejoin="round"/>
<path d="M20 28.75C24.8325 28.75 28.75 24.8325 28.75 20C28.75 15.1675 24.8325 11.25 20 11.25C15.1675 11.25 11.25 15.1675 11.25 20C11.25 21.5933 11.6758 23.0883 12.4208 24.375L11.6875 28.3125L15.625 27.5792C16.9545 28.3485 18.4639 28.7524 20 28.75Z" stroke="white" stroke-width="0.8" stroke-linejoin="round"/>
</svg>
