<?xml version="1.0" standalone="no"?>
<!DOCTYPE svg PUBLIC "-//W3C//DTD SVG 20010904//EN"
 "http://www.w3.org/TR/2001/REC-SVG-20010904/DTD/svg10.dtd">
<svg fill-opacity="0.24" version="1.0" xmlns="http://www.w3.org/2000/svg" width="66.667" height="66.667" viewBox="0 0 50 50"><path d="M18.8 2.6c-2.9.9-6.8 3.3-10.3 6.6-3.3 3-6 4.7-6.5 4.2S1 10.5.7 8C.5 5.5.4 14.1.4 27s.1 20.6.3 17c.2-3.6.8-6.9 1.3-7.4.6-.6 2.9.9 6 3.8 6.4 6 10.9 7.9 18.5 7.9 13.3.1 22.8-9.7 22.9-23.3.1-10.9-6.1-19.4-16.6-22.5-6.2-1.8-7.9-1.8-14 .1z" fill="#000000"/></svg>
