<svg width="20" height="20" viewBox="0 0 20 20" fill="none" xmlns="http://www.w3.org/2000/svg">
<path d="M18.2874 2.30369C18.1078 2.15459 17.8912 2.05695 17.6605 2.02114C17.4298 1.98534 17.1938 2.01271 16.9774 2.10036L2.0466 8.12786C1.80533 8.22701 1.59992 8.39719 1.45763 8.61582C1.31535 8.83445 1.24293 9.09119 1.24998 9.35195C1.25703 9.6127 1.34323 9.86515 1.49712 10.0758C1.65101 10.2864 1.86532 10.4452 2.1116 10.5312L5.33327 11.6495L7.0791 17.4212C7.08244 17.4329 7.09327 17.4404 7.09827 17.4512C7.11649 17.4971 7.14273 17.5394 7.17577 17.5762C7.22656 17.6323 7.29167 17.6735 7.3641 17.6954C7.37244 17.6987 7.37827 17.7062 7.3866 17.7079H7.3916L7.3941 17.7087C7.45858 17.7225 7.52555 17.719 7.58827 17.6987L7.6091 17.6945C7.66924 17.6733 7.7237 17.6385 7.76827 17.5929C7.77327 17.587 7.7816 17.5862 7.7866 17.5812L10.2974 14.8095L13.9616 17.647C14.1841 17.8212 14.4583 17.9154 14.7408 17.9154C15.3524 17.9154 15.8799 17.487 16.0058 16.8895L18.7241 3.54119C18.7705 3.31458 18.7544 3.07963 18.6774 2.86149C18.6005 2.64335 18.4657 2.45024 18.2874 2.30286M7.98994 12.7454L7.40077 15.6095L6.1716 11.5445L12.2674 8.36952L8.10327 12.5345C8.04569 12.5922 8.00628 12.6655 7.98994 12.7454ZM15.1891 16.722C15.1735 16.7976 15.1386 16.8679 15.088 16.9261C15.0374 16.9843 14.9726 17.0285 14.8999 17.0545C14.829 17.0814 14.7523 17.0895 14.6773 17.0781C14.6022 17.0668 14.5314 17.0362 14.4716 16.9895L10.5024 13.9154C10.4195 13.8513 10.3154 13.8209 10.211 13.8301C10.1066 13.8394 10.0095 13.8877 9.9391 13.9654L8.1916 15.8912L8.77994 13.0354L14.7708 7.04369C14.8409 6.9733 14.8836 6.88015 14.8911 6.78106C14.8986 6.68196 14.8705 6.58344 14.8118 6.50327C14.753 6.42311 14.6676 6.36658 14.5708 6.34389C14.474 6.3212 14.3724 6.33383 14.2841 6.37952L5.64827 10.8779L2.3841 9.74286C2.29782 9.71385 2.22261 9.65889 2.16876 9.5855C2.11491 9.5121 2.08505 9.42387 2.08327 9.33286C2.07887 9.24087 2.10333 9.1498 2.15324 9.0724C2.20314 8.99501 2.276 8.93514 2.3616 8.90119L17.2899 2.87369C17.3665 2.84157 17.4505 2.83126 17.5325 2.84391C17.6146 2.85656 17.6916 2.89167 17.7549 2.94536C17.818 2.99599 17.8656 3.06326 17.8924 3.13954C17.9192 3.21583 17.9241 3.29809 17.9066 3.37702L15.1891 16.722Z" fill="#1D1D1B"/>
<path d="M18.2874 2.30369C18.1078 2.15459 17.8912 2.05695 17.6605 2.02114C17.4298 1.98534 17.1938 2.01271 16.9774 2.10036L2.0466 8.12786C1.80533 8.22701 1.59992 8.39719 1.45763 8.61582C1.31535 8.83445 1.24293 9.09119 1.24998 9.35195C1.25703 9.6127 1.34323 9.86515 1.49712 10.0758C1.65101 10.2864 1.86532 10.4452 2.1116 10.5312L5.33327 11.6495L7.0791 17.4212C7.08244 17.4329 7.09327 17.4404 7.09827 17.4512C7.11649 17.4971 7.14273 17.5394 7.17577 17.5762C7.22656 17.6323 7.29167 17.6735 7.3641 17.6954C7.37244 17.6987 7.37827 17.7062 7.3866 17.7079H7.3916L7.3941 17.7087C7.45858 17.7225 7.52555 17.719 7.58827 17.6987L7.6091 17.6945C7.66924 17.6733 7.7237 17.6385 7.76827 17.5929C7.77327 17.587 7.7816 17.5862 7.7866 17.5812L10.2974 14.8095L13.9616 17.647C14.1841 17.8212 14.4583 17.9154 14.7408 17.9154C15.3524 17.9154 15.8799 17.487 16.0058 16.8895L18.7241 3.54119C18.7705 3.31458 18.7544 3.07963 18.6774 2.86149C18.6005 2.64335 18.4657 2.45024 18.2874 2.30286M7.98994 12.7454L7.40077 15.6095L6.1716 11.5445L12.2674 8.36952L8.10327 12.5345C8.04569 12.5922 8.00628 12.6655 7.98994 12.7454ZM15.1891 16.722C15.1735 16.7976 15.1386 16.8679 15.088 16.9261C15.0374 16.9843 14.9726 17.0285 14.8999 17.0545C14.829 17.0814 14.7523 17.0895 14.6773 17.0781C14.6022 17.0668 14.5314 17.0362 14.4716 16.9895L10.5024 13.9154C10.4195 13.8513 10.3154 13.8209 10.211 13.8301C10.1066 13.8394 10.0095 13.8877 9.9391 13.9654L8.1916 15.8912L8.77994 13.0354L14.7708 7.04369C14.8409 6.9733 14.8836 6.88015 14.8911 6.78106C14.8986 6.68196 14.8705 6.58344 14.8118 6.50327C14.753 6.42311 14.6676 6.36658 14.5708 6.34389C14.474 6.3212 14.3724 6.33383 14.2841 6.37952L5.64827 10.8779L2.3841 9.74286C2.29782 9.71385 2.22261 9.65889 2.16876 9.5855C2.11491 9.51211 2.08505 9.42387 2.08327 9.33286C2.07887 9.24087 2.10333 9.1498 2.15324 9.0724C2.20314 8.99501 2.276 8.93514 2.3616 8.90119L17.2899 2.87369C17.3665 2.84157 17.4505 2.83126 17.5325 2.84391C17.6146 2.85656 17.6916 2.89167 17.7549 2.94536C17.818 2.99599 17.8656 3.06326 17.8924 3.13954C17.9192 3.21583 17.9241 3.29809 17.9066 3.37702L15.1891 16.722Z" stroke="#1D1D1B" stroke-width="0.1"/>
</svg>
