<svg width="20" height="20" viewBox="0 0 20 20" fill="none" xmlns="http://www.w3.org/2000/svg">
<path d="M14.1667 13.7497C12.7167 15.1997 9.37585 13.9638 7.70585 12.2938C6.03585 10.6238 4.80002 7.28298 6.25002 5.83298C6.67002 5.41298 7.24835 5.36298 7.60169 5.37965C7.80585 5.38882 7.98252 5.50882 8.10169 5.67548L8.89502 6.78715C9.00956 6.94768 9.06346 7.14363 9.04713 7.34016C9.0308 7.53668 8.94531 7.72105 8.80585 7.86048L8.05502 8.61132C8.19335 9.02798 8.63835 10.028 9.30502 10.6947C9.97169 11.3613 10.9717 11.8063 11.3884 11.9447L12.1392 11.1947C12.2785 11.0551 12.4628 10.9694 12.6594 10.9529C12.8559 10.9365 13.0519 10.9902 13.2125 11.1047L14.3242 11.898C14.4909 12.0172 14.6109 12.1938 14.62 12.398C14.6367 12.7513 14.5867 13.3297 14.1667 13.7497Z" stroke="#1D1D1B" stroke-width="0.8" stroke-linejoin="round"/>
<path d="M10 18.75C14.8325 18.75 18.75 14.8325 18.75 10C18.75 5.1675 14.8325 1.25 10 1.25C5.1675 1.25 1.25 5.1675 1.25 10C1.25 11.5933 1.67583 13.0883 2.42083 14.375L1.6875 18.3125L5.625 17.5792C6.95455 18.3485 8.46393 18.7524 10 18.75Z" stroke="#1D1D1B" stroke-width="0.8" stroke-linejoin="round"/>
</svg>
